HIERARCHY
ROOT Hips
{
  OFFSET 5.85197 39.5295 -3.58091
  CHANNELS 6 Xposition Yposition Zposition Zrotation Xrotation Yrotation
  JOINT LeftHip
  {
    OFFSET 3.43 0 0
    CHANNELS 6 Xposition Yposition Zposition Zrotation Xrotation Yrotation
    JOINT LeftKnee
    {
      OFFSET 0 -18.47 0
      CHANNELS 6 Xposition Yposition Zposition Zrotation Xrotation Yrotation
      JOINT LeftAnkle
      {
        OFFSET 0 -17.95 0
        CHANNELS 6 Xposition Yposition Zposition Zrotation Xrotation Yrotation
        End Site
        {
          OFFSET 0 -3.12 0
        }
      }
    }
  }
  JOINT RightHip
  {
    OFFSET -3.43 0 0
    CHANNELS 6 Xposition Yposition Zposition Zrotation Xrotation Yrotation
    JOINT RightKnee
    {
      OFFSET 0 -18.47 0
      CHANNELS 6 Xposition Yposition Zposition Zrotation Xrotation Yrotation
      JOINT RightAnkle
      {
        OFFSET 0 -17.95 0
        CHANNELS 6 Xposition Yposition Zposition Zrotation Xrotation Yrotation
        End Site
        {
          OFFSET 0 -3.12 0
        }
      }
    }
  }
  JOINT Chest
  {
    OFFSET 0 4.57 0
    CHANNELS 6 Xposition Yposition Zposition Zrotation Xrotation Yrotation
    JOINT CS_BVH
    {
      OFFSET 0 6.57 0
      CHANNELS 6 Xposition Yposition Zposition Zrotation Xrotation Yrotation
      JOINT LeftCollar
      {
        OFFSET 1.06 4.19 1.76
        CHANNELS 6 Xposition Yposition Zposition Zrotation Xrotation Yrotation
        JOINT LeftShoulder
        {
          OFFSET 5.81 0 0
          CHANNELS 6 Xposition Yposition Zposition Zrotation Xrotation Yrotation
          JOINT LeftElbow
          {
            OFFSET 0 -12.08 0
            CHANNELS 6 Xposition Yposition Zposition Zrotation Xrotation Yrotation
            JOINT LeftWrist
            {
              OFFSET 0 -9.82 0
              CHANNELS 6 Xposition Yposition Zposition Zrotation Xrotation Yrotation
              End Site
              {
                OFFSET 0 -7.37 0
              }
            }
          }
        }
      }
      JOINT RightCollar
      {
        OFFSET -1.06 4.19 1.76
        CHANNELS 6 Xposition Yposition Zposition Zrotation Xrotation Yrotation
        JOINT RightShoulder
        {
          OFFSET -6.06 0 0
          CHANNELS 6 Xposition Yposition Zposition Zrotation Xrotation Yrotation
          JOINT RightElbow
          {
            OFFSET 0 -11.08 0
            CHANNELS 6 Xposition Yposition Zposition Zrotation Xrotation Yrotation
            JOINT RightWrist
            {
              OFFSET 0 -9.82 0
              CHANNELS 6 Xposition Yposition Zposition Zrotation Xrotation Yrotation
              End Site
              {
                OFFSET 0 -7.14001 0
              }
            }
          }
        }
      }
      JOINT Neck
      {
        OFFSET 0 4.05 0
        CHANNELS 6 Xposition Yposition Zposition Zrotation Xrotation Yrotation
        JOINT Head
        {
          OFFSET 0 5.19 0
          CHANNELS 6 Xposition Yposition Zposition Zrotation Xrotation Yrotation
          End Site
          {
            OFFSET 0 4.14001 0
          }
        }
      }
    }
  }
}
MOTION
Frames:	8
Frame Time:	0.0333333
0.934119 39.0062 -4.22828 -0.0884885 0.427088 47.8948 3.43 9.12756e-010 -1.60032e-011 -4.57966 -10.8172 -7.76677 1.57372e-008 -18.47 1.10541e-007 -2.71919 25.9831 23.6505 1.5558e-008 -17.95 3.38894e-008 -0.888508 -15.9391 -1.31521 -3.43 -9.12749e-010 1.60023e-011 -10.0982 -10.9163 -1.95596 4.27853e-008 -18.47 -1.42709e-007 -0.877581 20.3306 -3.75123 -2.59563e-008 -17.95 2.98131e-008 11.0455 -8.56037 -0.14504 -1.05168e-009 4.57 4.29798e-011 -0.604348 0.807173 -0.389192 -1.67976e-009 6.57 2.67812e-010 -1.22126 1.56795 -0.504377 1.06 4.19 1.76 -3.30924 2.30187 -5.04651 5.81 -5.77685e-010 -2.42139e-010 20.2153 7.45197 -24.3224 -4.70036e-009 -12.08 6.73172e-010 17.6312 -33.3384 -2.18754 -1.10605e-009 -9.82 -1.29618e-009 6.50878 6.97406 0.747127 -1.06 4.19 1.76 10.5841 2.55906 5.95587 -6.06 -5.89036e-008 -4.70616e-010 -27.8236 0.403777 20.6188 -7.10448e-009 -11.08 -5.62306e-011 -4.82829 -36.4795 7.54156 -1.10928e-009 -9.82 1.29577e-009 -5.48245 8.94758 0.814557 4.66962e-010 4.05 1.19922e-010 -1.41935 0.424169 -13.0254 3.38399e-009 5.19 -2.27068e-010 -27.1002 -10.3781 -4.58885 
0.99224 39.0072 -4.25422 -0.151601 0.233382 47.9949 3.43 9.12756e-010 -1.60032e-011 -4.55501 -10.7372 -7.81708 1.57372e-008 -18.47 1.10541e-007 -2.60135 26.0773 23.6014 1.5558e-008 -17.95 3.38894e-008 -0.868282 -16.0145 -1.31673 -3.43 -9.12749e-010 1.60023e-011 -10.1204 -10.5834 -2.113 4.27853e-008 -18.47 -1.42709e-007 -0.650844 19.9661 -3.61959 -2.59563e-008 -17.95 2.98131e-008 10.9777 -8.44976 -0.15825 -1.05168e-009 4.57 4.29798e-011 -0.541548 0.838676 -0.445559 -1.67976e-009 6.57 2.67812e-010 -1.15066 1.62988 -0.615878 1.06 4.19 1.76 -3.19786 2.38855 -5.21622 5.81 -5.77685e-010 -2.42139e-010 20.2691 7.29197 -24.0988 -4.70036e-009 -12.08 6.73172e-010 17.6249 -33.2955 -1.83575 -1.10605e-009 -9.82 -1.29618e-009 6.42662 6.84644 0.751029 -1.06 4.19 1.76 10.9133 2.61897 5.80661 -6.06 -5.89036e-008 -4.70616e-010 -28.345 0.225621 20.4688 -7.10448e-009 -11.08 -5.62306e-011 -4.80138 -36.4026 7.51452 -1.10928e-009 -9.82 1.29577e-009 -5.62709 8.91386 0.837607 4.66962e-010 4.05 1.19922e-010 -0.90096 0.7454 -13.7848 3.38399e-009 5.19 -2.27068e-010 -30.0391 -11.3832 -4.38014 
1.0372 39.0389 -4.27024 -0.186458 -0.121864 47.9837 3.43 9.12756e-010 -1.60032e-011 -4.33118 -10.3898 -7.63522 1.57372e-008 -18.47 1.10541e-007 -2.51558 25.8335 23.5213 1.5558e-008 -17.95 3.38894e-008 -0.772845 -15.929 -1.31358 -3.43 -9.12749e-010 1.60023e-011 -9.97655 -9.81006 -2.26885 4.27853e-008 -18.47 -1.42709e-007 -0.496676 18.9202 -3.39979 -2.59563e-008 -17.95 2.98131e-008 10.8863 -7.98804 -0.228131 -1.05168e-009 4.57 4.29798e-011 -0.421636 0.933846 -0.476487 -1.67976e-009 6.57 2.67812e-010 -1.02402 1.81741 -0.673905 1.06 4.19 1.76 -2.77426 2.62809 -5.26233 5.81 -5.77685e-010 -2.42139e-010 20.1011 6.83446 -24.0397 -4.70036e-009 -12.08 6.73172e-010 17.6527 -33.229 -1.49784 -1.10605e-009 -9.82 -1.29618e-009 6.57917 6.92649 0.774134 -1.06 4.19 1.76 11.0454 2.85893 5.75159 -6.06 -5.89036e-008 -4.70616e-010 -28.5939 -0.147207 20.0749 -7.10448e-009 -11.08 -5.62306e-011 -4.95389 -36.4286 6.78461 -1.10928e-009 -9.82 1.29577e-009 -5.28337 8.70215 0.772812 4.66962e-010 4.05 1.19922e-010 -0.840981 1.00592 -14.1181 3.38399e-009 5.19 -2.27068e-010 -31.6356 -12.038 -4.39243 
1.0356 39.0615 -4.30857 -0.290619 -0.498956 47.8514 3.43 9.12756e-010 -1.60032e-011 -4.06965 -10.2324 -7.51578 1.57372e-008 -18.47 1.10541e-007 -2.3548 25.8197 23.5054 1.5558e-008 -17.95 3.38894e-008 -0.801432 -15.8761 -1.30894 -3.43 -9.12749e-010 1.60023e-011 -9.77449 -9.28831 -2.43674 4.27853e-008 -18.47 -1.42709e-007 -0.266136 17.9984 -3.26536 -2.59563e-008 -17.95 2.98131e-008 10.723 -7.4255 -0.310529 -1.05168e-009 4.57 4.29798e-011 -0.280224 1.04439 -0.459805 -1.67976e-009 6.57 2.67812e-010 -0.872203 2.0346 -0.637026 1.06 4.19 1.76 -2.40466 2.90786 -5.20598 5.81 -5.77685e-010 -2.42139e-010 20.2022 6.26862 -24.2422 -4.70036e-009 -12.08 6.73172e-010 17.5667 -33.3055 -1.20993 -1.10605e-009 -9.82 -1.29618e-009 6.83408 7.02418 0.806745 -1.06 4.19 1.76 11.2085 3.17056 5.84952 -6.06 -5.89036e-008 -4.70616e-010 -28.9287 -0.350355 19.7877 -7.10448e-009 -11.08 -5.62306e-011 -5.08995 -36.6074 6.41318 -1.10928e-009 -9.82 1.29577e-009 -5.37927 8.56699 0.783908 4.66962e-010 4.05 1.19922e-010 -0.982236 1.42049 -14.1541 3.38399e-009 5.19 -2.27068e-010 -32.2685 -12.6396 -4.63978 
1.04997 39.0682 -4.33791 -0.305916 -0.689407 47.7156 3.43 9.12756e-010 -1.60032e-011 -4.01903 -10.1268 -7.49865 1.57372e-008 -18.47 1.10541e-007 -2.23688 25.8391 23.5654 1.5558e-008 -17.95 3.38894e-008 -0.831213 -15.8662 -1.30927 -3.43 -9.12749e-010 1.60023e-011 -9.76239 -9.00479 -2.53952 4.27853e-008 -18.47 -1.42709e-007 -0.081391 17.5862 -2.97675 -2.59563e-008 -17.95 2.98131e-008 10.6113 -7.22067 -0.336716 -1.05168e-009 4.57 4.29798e-011 -0.243896 1.12466 -0.424386 -1.67976e-009 6.57 2.67812e-010 -0.863688 2.19315 -0.562398 1.06 4.19 1.76 -2.03374 3.09936 -5.00775 5.81 -5.77685e-010 -2.42139e-010 20.0991 5.73333 -24.2335 -4.70036e-009 -12.08 6.73172e-010 17.7932 -33.3704 -1.3645 -1.10605e-009 -9.82 -1.29618e-009 6.47935 6.90575 0.761612 -1.06 4.19 1.76 11.125 3.39996 5.89355 -6.06 -5.89036e-008 -4.70616e-010 -29.0129 -0.525658 19.8381 -7.10448e-009 -11.08 -5.62306e-011 -5.09103 -36.6325 6.4854 -1.10928e-009 -9.82 1.29577e-009 -5.44377 8.39989 0.788775 4.66962e-010 4.05 1.19922e-010 -1.1524 1.43934 -13.9936 3.38399e-009 5.19 -2.27068e-010 -32.2485 -11.7611 -4.40409 
1.06927 39.0596 -4.35589 -0.406302 -0.717087 47.5059 3.43 9.12756e-010 -1.60032e-011 -4.08939 -10.2379 -7.50848 1.57372e-008 -18.47 1.10541e-007 -2.0912 25.9917 24.0305 1.5558e-008 -17.95 3.38894e-008 -0.990329 -15.9288 -1.32406 -3.43 -9.12749e-010 1.60023e-011 -9.76579 -9.11033 -2.53255 4.27853e-008 -18.47 -1.42709e-007 0.0776731 17.6271 -2.72268 -2.59563e-008 -17.95 2.98131e-008 10.5115 -7.26351 -0.326804 -1.05168e-009 4.57 4.29798e-011 -0.263198 1.13591 -0.37075 -1.67976e-009 6.57 2.67812e-010 -0.87889 2.21491 -0.456445 1.06 4.19 1.76 -2.08065 3.12595 -4.90744 5.81 -5.77685e-010 -2.42139e-010 20.5145 5.43425 -24.317 -4.70036e-009 -12.08 6.73172e-010 17.8108 -33.4671 -1.28826 -1.10605e-009 -9.82 -1.29618e-009 6.59546 6.85059 0.782936 -1.06 4.19 1.76 10.8414 3.43712 5.96089 -6.06 -5.89036e-008 -4.70616e-010 -28.8228 -0.63552 19.9576 -7.10448e-009 -11.08 -5.62306e-011 -5.0203 -36.526 6.95423 -1.10928e-009 -9.82 1.29577e-009 -5.57908 8.56016 0.816842 4.66962e-010 4.05 1.19922e-010 -1.44997 1.2885 -13.6699 3.38399e-009 5.19 -2.27068e-010 -31.5666 -10.0496 -4.03646 
1.09284 39.0618 -4.36482 -0.628746 -0.817621 47.2696 3.43 9.12756e-010 -1.60032e-011 -3.87289 -10.4148 -7.39124 1.57372e-008 -18.47 1.10541e-007 -2.11704 26.1303 24.2128 1.5558e-008 -17.95 3.38894e-008 -1.02453 -15.9977 -1.33026 -3.43 -9.12749e-010 1.60023e-011 -9.51902 -9.11117 -2.46046 4.27853e-008 -18.47 -1.42709e-007 0.0481567 17.2941 -2.70046 -2.59563e-008 -17.95 2.98131e-008 10.5155 -7.04223 -0.361209 -1.05168e-009 4.57 4.29798e-011 -0.241142 1.13092 -0.323596 -1.67976e-009 6.57 2.67812e-010 -0.890835 2.2023 -0.361167 1.06 4.19 1.76 -2.03679 3.10226 -4.83228 5.81 -5.77685e-010 -2.42139e-010 20.81 5.19676 -24.1916 -4.70036e-009 -12.08 6.73172e-010 17.7936 -33.3813 -1.13372 -1.10605e-009 -9.82 -1.29618e-009 6.83305 6.9124 0.819841 -1.06 4.19 1.76 10.9166 3.4546 6.07122 -6.06 -5.89036e-008 -4.70616e-010 -28.9288 -0.614151 20.0068 -7.10448e-009 -11.08 -5.62306e-011 -4.99399 -36.6176 7.22529 -1.10928e-009 -9.82 1.29577e-009 -5.38286 8.63106 0.786765 4.66962e-010 4.05 1.19922e-010 -1.40258 1.32982 -13.2699 3.38399e-009 5.19 -2.27068e-010 -30.6476 -8.89968 -3.70921 
1.10644 39.0909 -4.36963 -0.585763 -1.20307 47.1772 3.43 9.12756e-010 -1.60032e-011 -3.58369 -10.0166 -7.16628 1.57372e-008 -18.47 1.10541e-007 -2.08065 25.9336 24.081 1.5558e-008 -17.95 3.38894e-008 -0.971831 -15.9253 -1.33108 -3.43 -9.12749e-010 1.60023e-011 -9.28454 -8.40515 -2.59737 4.27853e-008 -18.47 -1.42709e-007 0.0614575 16.3386 -2.57806 -2.59563e-008 -17.95 2.98131e-008 10.4627 -6.49943 -0.44254 -1.05168e-009 4.57 4.29798e-011 -0.190492 1.23918 -0.355507 -1.67976e-009 6.57 2.67812e-010 -0.930526 2.41558 -0.414145 1.06 4.19 1.76 -2.03384 3.39059 -4.90844 5.81 -5.77685e-010 -2.42139e-010 20.9015 4.97288 -23.5019 -4.70036e-009 -12.08 6.73172e-010 18.032 -33.2376 -1.13051 -1.10605e-009 -9.82 -1.29618e-009 6.74959 6.75735 0.826806 -1.06 4.19 1.76 11.0885 3.73823 6.00212 -6.06 -5.89036e-008 -4.70616e-010 -29.0727 -0.905053 19.9364 -7.10448e-009 -11.08 -5.62306e-011 -5.01806 -36.684 6.90283 -1.10928e-009 -9.82 1.29577e-009 -5.21497 8.8443 0.770701 4.66962e-010 4.05 1.19922e-010 -1.23636 1.58713 -12.9134 3.38399e-009 5.19 -2.27068e-010 -29.5023 -8.24145 -3.34747 
